 http://img13.imageshack.us/img13/1999/exorcismus2010.jpg

Country.......: Spain
Genre.........: Horror
Date release..: 29.12.2010 [World]
Director......: Manuel Carballo
Writers.......: David Munoz
Duration......: 101 min.
More..........: http://www.imdb.com/title/tt1322306
Trailer.......: http://www.imdb.com/video/screenplay/vi1174968857
Trailer.......:

Pilot :
A family allows their young daughter's exorcism to be recorded secretly. 

Cats :
Doug Bradley   	 ...  	Father Ennis (as Douglas Bradley)
Stephen Billington 	... 	Christopher
Tommy Bastow 	... 	Alex
Sophie Vavasseur 	... 	Emma
Richard Felix 	... 	John
Jo Anne Stockham 	... 	Lucy
Brendan Price 	... 	Brian
Melina Matthews 	... 	(voice)
Isamaya French 	... 	Rose
Lazzaro E. Oertli Ortiz 	... 	Mark
Claudia Costas 	... 	Jessica
Cristina Cervia 	... 	Jessica s Mother
Emma Reynolds 	... 	Sarah
Francesc Ten 	... 	Spanish Priest 1
Pere Raich 	... 	Spanish Priest 2 

Data Technical :
!!! SAMPLE !!!
Audio.....: English
Subtitles.: English .sub, Polish .txt
Format                           : AVI
Format/Info                      : Audio Video Interleave
File size                        : 701 MiB
Duration                         : 1h 41mn
Overall bit rate                 : 969 Kbps
Writing application              : Nandub v1.0rc2
Writing library                  : Nandub build 1852/release
Video
ID                               : 0
Format                           : MPEG-4 Visual
Format profile                   : Advanced Simple@L5
Format settings, BVOP            : Yes
Format settings, QPel            : No
Format settings, GMC             : No warppoints
Format settings, Matrix          : Default (H.263)
Codec ID                         : XVID
Codec ID/Hint                    : XviD
Duration                         : 1h 41mn
Bit rate                         : 827 Kbps
Width                            : 640 pixels
Height                           : 272 pixels
Display aspect ratio             : 2.35:1
Frame rate                       : 23.976 fps
Color space                      : YUV
Chroma subsampling               : 4:2:0
Bit depth                        : 8 bits
Scan type                        : Progressive
Bits/(Pixel*Frame)               : 0.198
Stream size                      : 598 MiB (85%)
Writing library                  : XviD 61
Audio
ID                               : 1
Format                           : MPEG Audio
Format version                   : Version 1
Format profile                   : Layer 3
Mode                             : Joint stereo
Mode extension                   : MS Stereo
Codec ID                         : 55
Codec ID/Hint                    : MP3
Duration                         : 1h 41mn
Bit rate mode                    : Variable
Bit rate                         : 129 Kbps
Channel(s)                       : 2 channels
Sampling rate                    : 48.0 KHz
Stream size                      : 93.5 MiB (13%)
Alignment                        : Aligned on interleaves
Interleave, duration             : 24 ms (0.58 video frame)
Interleave, preload duration     : 136 ms
Writing library                  : LAME3.93 
Encoding settings                : -m j -V 1 -q 2 -lowpass 19.5 --vbr-new

Screen : 
http://img811.imageshack.us/img811/2594/exorcismus2010s1.jpg 
http://img405.imageshack.us/img405/9197/exorcismus2010s2.jpg 
http://img809.imageshack.us/img809/6510/exorcismus2010s3.jpg 
http://img853.imageshack.us/img853/9592/exorcismus2010s4.jpg 
http://img851.imageshack.us/img851/1084/exorcismus2010s5.jpg